<svg xmlns="http://www.w3.org/2000/svg" width="512" height="512" viewBox="0 0 512 512" fill="none">
  <rect width="512" height="512" rx="72" fill="#060A12" />
  <rect x="36" y="36" width="440" height="440" rx="62" fill="#0D1624" />
  <path d="M104 388L152 344L204 388Z" fill="#3A5471" fill-opacity="0.28" />
  <path d="M408 388L360 344L308 388Z" fill="#3A5471" fill-opacity="0.28" />
  <path d="M256 100L304 164H208L256 100Z" fill="#78BBFF" />
  <path d="M166 164L218 222L144 228L166 164Z" fill="#4DE4ED" />
  <path d="M346 164L368 228L294 222L346 164Z" fill="#4DE4ED" />
  <path d="M142 246L256 174L370 246L324 360H188L142 246Z" fill="#1C2D42" />
  <path d="M256 236L298 274L256 334L214 274L256 236Z" fill="#8BC9FF" />
  <path d="M198 398H314" stroke="#2F4F73" stroke-width="20" stroke-linecap="round" />
</svg>
